<svg width="281" height="108" viewBox="0 0 281 108" fill="none" xmlns="http://www.w3.org/2000/svg">
<g clip-path="url(#clip0_222_132)">
<path d="M242.826 34.3419C242.826 26.1764 235.089 22.6145 227.043 22.6145C221.438 22.6145 216.899 27.0501 216.899 32.5274V65.7607C216.899 66.1976 214.767 67.3401 214.87 67.7769C214.973 68.1465 215.076 68.5498 215.248 68.953C215.42 69.3562 215.627 69.6923 215.97 69.9611C216.177 70.1627 216.245 70.3979 216.177 70.6668H216.108C216.074 70.9356 215.867 71.1036 215.523 71.1036L210.469 70.8012C210.194 70.8012 209.953 70.6668 209.815 70.3643L209.678 69.9947C209.54 69.6587 209.678 69.4907 210.125 69.4907H210.641C211.26 69.4907 211.741 69.3562 212.05 69.0538C212.36 68.7514 212.601 68.449 212.738 68.0793C212.944 67.6425 211.5 66.7352 211.5 66.2312V24.9331C211.5 24.429 211.397 23.9586 211.225 23.5218C211.088 23.1521 210.847 22.8161 210.537 22.5473C210.228 22.2785 209.747 22.1104 209.128 22.1104H208.612C208.165 22.1104 208.027 21.9424 208.165 21.6064L208.302 21.2368C208.44 20.9679 208.681 20.7999 208.956 20.7999H232.407C238.218 20.7999 242.791 21.8752 246.127 23.9922C249.462 26.1092 250.941 29.1671 251.113 33.1658C251.25 36.4925 249.531 40.088 248.74 41.2641C246.539 44.5572 241.519 45.3973 238.321 45.7669C234.676 46.1702 224.429 45.0949 223.123 45.6325C224.36 45.6661 225.358 46.0022 228.109 47.1447C236.395 50.6058 240.625 54.4029 241.897 55.4782C248.396 61.0563 254.035 65.1559 254.517 65.6599C255.961 67.1721 255.514 68.0121 256.133 68.3482C256.717 68.7178 257.405 68.8858 258.196 68.8858H258.849C259.296 68.8858 259.503 69.0874 259.503 69.5243L259.434 69.6587C259.434 69.9275 259.262 70.1291 258.918 70.2299L251.628 70.2971C250.7 70.2971 249.84 70.0619 248.981 70.0619C248.121 70.0619 247.571 70.3643 246.574 70.2635C245.783 70.1963 244.614 69.6923 244.476 68.9194C242.585 58.7713 230.103 46.6406 221.61 47.0439C220.475 47.1111 220.819 47.0439 219.718 47.0439C219.34 47.0439 219.134 46.8758 219.134 46.5398V46.3382C219.134 46.103 219.237 45.9014 219.478 45.7669C221.988 44.1204 224.532 43.7508 226.561 43.5155C231.444 42.9107 242.791 43.6836 242.791 34.3419H242.826Z" fill="#433523"/>
<path d="M232.66 90.9974C232.66 90.7958 232.797 90.6278 233.107 90.4261C233.932 90.1909 234.791 89.6197 235.754 88.7124C236.683 87.8051 237.439 86.5954 238.024 85.1505C238.54 83.84 239.193 82.2606 239.984 80.3789C240.74 78.5307 241.6 76.5145 242.46 74.3303C243.354 72.1797 244.316 69.8947 245.314 67.4753C246.311 65.0895 247.308 62.7037 248.271 60.3851C249.233 58.0665 250.162 55.7815 251.09 53.5973C252.019 51.4131 252.81 49.4305 253.532 47.7167C253.91 46.7759 253.91 46.003 253.532 45.3645C253.153 44.7261 252.397 44.4237 251.297 44.4237C250.953 44.4237 250.678 44.4237 250.506 44.4909L249.99 44.5581H249.852C249.577 44.5581 249.44 44.4237 249.509 44.1212V43.6844C249.612 43.4156 249.784 43.2139 250.093 43.1131L261.475 40.0217C261.681 39.9881 261.887 40.0553 262.128 40.2905L262.334 40.4921C262.61 40.7609 262.541 41.0634 262.128 41.3322C261.887 41.5338 261.681 41.7354 261.544 41.9706C261.406 42.2059 261.303 42.5083 261.269 42.8779C261.234 43.2476 261.269 43.718 261.475 44.222L276.57 87.3347C276.776 87.8387 277.017 88.3092 277.361 88.746C277.636 89.1156 278.014 89.4517 278.461 89.7205C278.908 89.9893 279.39 90.1573 279.974 90.1573H280.628C280.972 90.1573 281.075 90.3589 281.006 90.7286L280.937 90.9974C280.903 91.2662 280.662 91.4342 280.284 91.4342H261.887C261.544 91.4342 261.337 91.2326 261.234 90.863L261.165 90.3589C261.165 90.1573 261.268 90.0901 261.44 90.0901H261.716C263.16 89.9893 264.329 89.6533 265.257 89.1156C266.014 88.6116 266.598 87.8051 266.942 86.7298C267.32 85.6545 267.045 84.1088 266.186 82.059L261.991 70.2644H260.615C259.377 70.2644 258.243 70.5332 257.245 71.1044C256.248 71.6757 255.389 72.4822 254.598 73.4902C254.46 73.7255 254.254 73.8263 254.013 73.8263C253.876 73.8263 253.669 73.7255 253.429 73.4902C252.363 72.4485 251.4 71.6421 250.506 71.1044C249.612 70.5332 248.649 70.2644 247.652 70.2644H246.07L243.388 76.8841C242.907 78.0602 242.563 79.4044 242.356 80.9165C242.15 82.4286 242.219 83.84 242.597 85.1505C242.975 86.461 243.766 87.6035 244.935 88.5444C246.104 89.4853 247.858 89.9893 250.162 90.0901C250.609 90.0901 250.815 90.2917 250.815 90.7286V90.7958C250.815 91.2326 250.609 91.4342 250.162 91.4342H233.107C232.763 91.4342 232.591 91.2662 232.591 90.9302L232.66 90.9974ZM247.239 68.853H247.686C248.993 68.853 250.093 68.5506 251.056 67.9457C251.984 67.3409 252.81 66.6352 253.463 65.8288C253.704 65.5935 253.91 65.4927 254.047 65.4927C254.185 65.4927 254.495 65.6271 254.632 65.8288C255.217 66.6688 255.973 67.4081 256.902 67.9793C257.83 68.5842 259.068 68.853 260.615 68.853H260.821C261.028 68.853 261.131 68.7858 261.2 68.6514C261.2 68.6178 261.2 68.5506 261.2 68.517C261.2 68.4834 261.2 68.4162 261.2 68.3154L255.629 52.522C255.285 51.6819 254.942 51.2451 254.529 51.2451C254.116 51.2451 253.807 51.6483 253.532 52.4548L246.895 68.4162V68.5506C246.792 68.7858 246.895 68.9202 247.239 68.9202V68.853Z" fill="#433523"/>
<path d="M82.9448 57.7973C83.6669 57.7973 85.2831 57.6629 85.2831 57.6629C88.2059 57.6293 94.4984 57.2596 99.4844 56.9908C103.37 56.7892 106.43 56.6212 108.734 56.4868C111.004 56.3188 112.757 56.218 113.926 56.1844C115.095 56.1508 115.852 56.1844 116.23 56.2852C116.608 56.386 116.849 56.6212 116.987 56.9236C117.055 57.058 117.09 57.3269 117.124 57.7637L117.193 59.343C117.193 60.0151 117.296 64.2491 117.399 65.4252C117.571 67.7774 117.193 69.3903 117.124 70.1968C117.055 71.0033 117.159 71.3729 116.677 71.4065C116.127 71.4065 115.783 71.1041 115.714 70.4656C115.611 69.7936 115.577 66.198 114.855 64.8203C113.961 63.0058 112.241 60.9896 110.522 60.1159C108.803 59.2422 106.946 58.7046 104.986 58.503C103.026 58.3349 101.204 58.4358 99.4844 58.8054C97.7651 59.2086 96.4584 59.7463 95.5988 60.4183C94.9455 60.956 94.3953 61.6952 94.017 62.6025C93.6388 63.5098 93.5013 65.0555 93.57 67.2061L93.9139 76.447C93.9483 77.4214 94.4641 78.1271 95.3925 78.5303C96.3553 78.9336 97.5244 79.1352 98.8998 79.068C101.823 78.9672 103.92 78.5303 105.227 77.7911C106.568 77.0518 107.462 76.1445 107.978 75.0692C108.631 73.9603 108.975 73.1875 109.044 72.6834C109.078 72.213 109.353 71.9778 109.834 71.9442C110.178 71.9442 110.385 72.1458 110.453 72.6162C110.522 73.0867 110.522 73.7251 110.453 74.498C110.419 75.2709 110.35 76.1445 110.281 77.119C110.213 78.0935 110.213 79.1016 110.247 80.1097C110.281 81.1178 110.385 82.0587 110.522 82.9659C110.66 83.8732 110.763 84.7133 110.866 85.419C110.969 86.1582 110.969 86.7295 110.935 87.1999C110.866 87.6368 110.728 87.872 110.453 87.872C109.972 87.872 109.697 87.6704 109.594 87.1999C109.525 86.7295 109.112 85.9566 108.356 84.9149C107.531 83.5708 106.533 82.5627 105.33 81.8234C104.126 81.0842 101.995 80.7817 98.9342 80.8825C97.8339 80.9162 96.7335 81.1514 95.6676 81.521C94.6016 81.9242 94.1202 82.6971 94.1546 83.8732L94.6704 97.2808C94.7048 98.3561 94.8079 99.2634 94.9455 100.036C95.083 100.776 95.2549 101.414 95.4956 101.884C95.7363 102.355 95.977 102.758 96.2865 103.061C96.5616 103.363 96.9054 103.632 97.2493 103.901C98.1777 104.539 99.5531 104.976 101.341 105.245C103.129 105.514 105.055 105.446 107.118 105.077C109.147 104.707 111.107 103.934 112.964 102.825C114.82 101.683 116.23 100.07 117.193 97.9865C118.018 96.3399 118.534 95.1638 118.706 94.4246C118.878 93.6853 119.187 93.3157 119.6 93.2821C120.013 93.2484 120.219 93.7189 120.219 94.5926C120.219 95.4998 119.978 97.2472 119.531 99.9018C119.222 101.28 119.05 102.355 118.947 103.128C118.844 103.901 118.706 104.505 118.603 104.875C118.465 105.346 118.431 105.648 118.431 105.782C118.293 106.152 117.915 106.454 117.227 106.622C116.54 106.79 115.508 106.891 114.133 106.925C112.757 106.925 111.004 106.925 108.94 106.925C106.877 106.925 104.367 106.925 101.444 106.992C96.4584 107.093 92.5041 107.194 89.6157 107.362C86.7273 107.53 84.4922 107.664 82.9792 107.799C81.4663 107.933 80.5035 108 80.0908 108C79.6782 108 79.4719 107.899 79.4375 107.664C79.4375 107.294 79.7126 106.992 80.2971 106.824C80.8817 106.622 81.6038 106.286 82.4978 105.715C83.2543 105.312 83.8045 104.505 84.1827 103.329C84.561 102.153 84.6985 100.439 84.5954 98.2217L83.3919 66.9709C83.3231 64.7531 81.3287 61.7288 81.6726 60.9896C82.9792 58.2677 82.1196 57.7973 83.0136 57.7637L82.9448 57.7973Z" fill="#433523"/>
<path d="M216.151 58.8388C214.26 50.27 209.377 43.919 201.537 39.8531C196.139 37.0304 190.637 35.9887 185.067 36.6272C184.379 36.6944 183.691 36.7952 183.004 36.9296C181.078 37.2993 179.152 37.8369 177.192 38.6098C168.905 41.9029 162.475 47.7834 157.833 56.2849C155.564 60.4517 154.12 64.6185 153.397 68.7853C153.26 69.7261 153.157 70.6334 153.054 71.5743C152.779 75.0018 152.985 78.4293 153.741 81.8568C155.633 90.4256 160.515 96.7765 168.355 100.842C173.169 103.329 178.052 104.438 183.038 104.169C183.691 104.136 184.345 104.035 185.032 103.968C187.542 103.665 190.087 103.06 192.632 102.052C200.987 98.7927 207.452 92.9122 212.059 84.4442C214.432 80.1095 215.911 75.7411 216.564 71.3727C216.667 70.5998 216.77 69.8269 216.805 69.0541C217.08 65.6602 216.873 62.2663 216.117 58.8724L216.151 58.8388ZM212.128 68.4492C207.692 68.4492 204.529 70.0622 203.016 73.6241C203.016 73.6241 203.016 73.6577 203.016 73.6913C202.363 75.237 201.606 76.8164 200.747 78.4293C196.173 86.8301 190.534 92.1729 186.133 95.634C184.723 96.7429 183.451 97.6502 182.385 98.4231C182.178 98.5911 181.903 98.7591 181.731 98.8935C177.502 101.851 173.204 102.187 168.871 99.9352C164.538 97.6838 161.65 93.2818 161.65 88.8126C161.65 86.7292 161.856 83.7386 162.51 80.1431C163.232 76.2451 160.653 72.5824 156.63 72.0111L156.217 71.9439C160.722 72.5152 165.054 70.1294 166.877 66.0634C167.564 64.5513 168.286 63.0055 169.146 61.4598C173.135 54.1344 177.708 49.0603 181.766 45.8008C183.21 44.6247 184.585 43.7174 185.858 42.9782C186.683 42.5077 187.508 42.0709 188.23 41.7685C193.457 39.5843 197.824 39.2818 201.09 40.7268C205.561 42.7429 207.521 46.6409 207.417 51.7149C207.349 53.8991 207.314 56.9234 206.73 60.5861C205.973 65.3914 208.758 67.9452 212.61 68.4828H212.678C212.506 68.4828 212.335 68.4156 212.163 68.4156L212.128 68.4492Z" fill="#433523"/>
<path d="M210.824 68.5163C189.573 71.4062 186.341 73.4559 186.135 94.3906C183.177 73.624 178.776 72.2126 157.319 72.011C178.57 69.1212 182.799 68.0795 182.971 47.1112C185.928 67.8779 189.332 68.3147 210.789 68.4827L210.824 68.5163Z" fill="#433523"/>
<path d="M117.218 63.3078L115.396 66.1977V40.8946C115.293 40.525 115.121 40.1553 114.811 39.7521C114.571 39.4161 114.261 39.08 113.917 38.7104C113.574 38.3408 113.058 38.0048 112.439 37.7359C112.095 37.5343 111.992 37.2991 112.164 36.9631L112.232 36.8959C112.336 36.627 112.508 36.459 112.817 36.459H123.133C125.643 36.459 127.018 40.9282 127.775 43.2468L136.371 71.1037L146.893 35.5853C147.443 33.7708 149.128 32.5275 151.054 32.5275C153.427 32.5275 155.318 34.3756 155.387 36.6606L156.487 81.2518C156.521 81.8567 156.659 82.3943 156.865 82.8647C157.003 83.3016 157.278 83.6712 157.622 84.0408C158 84.3769 158.516 84.5785 159.169 84.5785H159.754C160.201 84.5785 160.304 84.7465 160.097 85.0825L159.822 85.5866C159.685 85.8218 159.478 85.9562 159.238 85.9562H144.899C144.624 85.9562 144.383 85.8218 144.246 85.5194L144.108 85.1497C143.97 84.8137 144.108 84.6457 144.555 84.6457H145.071C145.518 84.6121 145.896 84.4777 146.309 84.2761C146.584 84.0744 146.859 83.8056 147.1 83.436C147.34 83.0664 147.443 82.5287 147.443 81.8231L150.71 36.6606C150.813 35.2493 148.75 34.8797 148.337 36.2574L133.861 85.0153C133.827 85.2169 133.62 85.3514 133.277 85.4522C133.07 85.4522 132.348 85.5194 132.211 85.5194C131.213 85.5194 127.397 74.2624 126.709 72.6494L117.528 44.927L117.253 63.3078" fill="#433523"/>
<path d="M96.9693 15.3233C83.7651 -2.51991 55.9127 -2.31829 36.7599 3.56223C20.3923 8.46827 7.91027 19.49 2.7868 35.149C-3.19631 54.2019 0.242257 77.052 15.1657 91.3668C31.3957 106.488 58.4229 111.932 78.229 99.4988C80.7392 98.121 85.8283 93.4166 85.5876 99.3979L92.4647 103.834C92.4647 103.834 92.7742 103.968 93.118 103.968C93.4619 103.397 93.8745 63.7788 94.3903 64.7533C94.5279 63.1067 95.2843 60.2505 95.5938 59.0744C95.5938 58.8727 95.525 58.6711 95.3531 58.5031C94.9749 58.0663 94.3559 57.5622 93.8745 57.5958C93.3931 57.5958 92.7742 57.663 92.1209 57.6966C89.1293 57.7302 85.897 57.7974 82.9743 57.8647C72.8649 82.9997 54.6404 113.007 26.9256 95.0296C19.3951 89.8211 5.50327 74.4981 24.0372 34.6114C33.4589 14.248 46.491 5.84723 57.7008 3.2262C62.8586 1.24362 68.2916 1.34443 73.4494 3.09179C76.0284 3.69664 78.0571 4.63753 80.1202 6.04885C80.1546 6.04885 80.5673 6.35128 80.7392 6.48569C91.7426 13.7439 94.9061 31.2847 82.1146 38.7446C74.1028 43.4826 63.4432 42.1721 55.3282 46.7421C51.2019 48.6238 48.2103 52.3874 47.3851 56.7894C46.663 60.6201 47.5914 64.8877 50.4454 67.7439C53.5745 70.8354 60.1422 72.8852 64.7498 70.0625C65.9877 69.3233 69.22 66.3662 70.9049 64.0476C73.9308 59.9144 79.3294 61.0233 84.556 61.5946C85.2437 61.6618 86.3441 62.1994 86.9974 61.9642C87.6507 61.729 87.8914 59.4104 87.6851 58.8055C87.4444 58.0999 86.4816 57.9319 85.7251 57.8983C83.215 57.7638 76.5785 57.663 74.1028 58.0999C71.627 58.5367 69.7702 59.3432 67.6039 61.4602C66.2284 62.8043 65.6439 64.7533 64.3372 66.1982C59.3857 71.6083 49.2763 67.8447 48.5542 60.8553C47.8321 53.6979 51.4426 50.3376 57.5632 47.2797C64.8874 43.617 76.2003 45.4988 83.6276 43.5162C100.511 37.9717 104.534 27.2523 96.9349 15.4577L96.9693 15.3233Z" fill="#433523"/>
</g>
<defs>
<clipPath id="clip0_222_132">
<rect width="281" height="108" fill="white"/>
</clipPath>
</defs>
</svg>
